<?xml version="1.0" encoding="UTF-8" ?>
<svg xmlns="http://www.w3.org/2000/svg" xmlns:xlink="http://www.w3.org/1999/xlink" width="570pt" height="260pt" viewBox="0.00 0.00 569.57 260.00">
<g id="graph0" class="graph" transform="scale(1 1) rotate(0) translate(4 256)">
<title>G</title>
<!-- <polygon fill="#ffffff" stroke="transparent" points="-4,4 -4,-256 565.5702,-256 565.5702,4 -4,4"/> -->
<!-- data/winequality.csv -->
<g id="node1" class="node">
<title>data/winequality.csv</title>
<path fill="#ffffd1" stroke="#000000" d="M451.7979,-180C451.7979,-180 343.8607,-180 343.8607,-180 337.8607,-180 331.8607,-174 331.8607,-168 331.8607,-168 331.8607,-156 331.8607,-156 331.8607,-150 337.8607,-144 343.8607,-144 343.8607,-144 451.7979,-144 451.7979,-144 457.7979,-144 463.7979,-150 463.7979,-156 463.7979,-156 463.7979,-168 463.7979,-168 463.7979,-174 457.7979,-180 451.7979,-180"/>
<text text-anchor="middle" x="397.8293" y="-157.8" font-family="Times,serif" font-size="14.00" fill="#000000">data/winequality.csv</text>
</g>
<!-- analyze -->
<g id="node6" class="node">
<title>analyze</title>
<polygon fill="#d6fdd0" stroke="#000000" points="390.0788,-108 335.5798,-108 331.5798,-104 331.5798,-72 386.0788,-72 390.0788,-76 390.0788,-108"/>
<polyline fill="none" stroke="#000000" points="386.0788,-104 331.5798,-104 "/>
<polyline fill="none" stroke="#000000" points="386.0788,-104 386.0788,-72 "/>
<polyline fill="none" stroke="#000000" points="386.0788,-104 390.0788,-108 "/>
<text text-anchor="middle" x="360.8293" y="-85.8" font-family="Times,serif" font-size="14.00" fill="#000000">analyze</text>
</g>
<!-- data/winequality.csv&#45;&gt;analyze -->
<g id="edge2" class="edge">
<title>data/winequality.csv-&gt;analyze</title>
<path fill="none" stroke="#000000" d="M388.4926,-143.8314C384.405,-135.8771 379.5189,-126.369 374.9984,-117.5723"/>
<polygon fill="#000000" stroke="#000000" points="377.9754,-115.7078 370.2917,-108.4133 371.7494,-118.9074 377.9754,-115.7078"/>
</g>
<!-- profile -->
<g id="node7" class="node">
<title>profile</title>
<polygon fill="#d6fdd0" stroke="#000000" points="491.8293,-108 441.8293,-108 437.8293,-104 437.8293,-72 487.8293,-72 491.8293,-76 491.8293,-108"/>
<polyline fill="none" stroke="#000000" points="487.8293,-104 437.8293,-104 "/>
<polyline fill="none" stroke="#000000" points="487.8293,-104 487.8293,-72 "/>
<polyline fill="none" stroke="#000000" points="487.8293,-104 491.8293,-108 "/>
<text text-anchor="middle" x="464.8293" y="-85.8" font-family="Times,serif" font-size="14.00" fill="#000000">profile</text>
</g>
<!-- data/winequality.csv&#45;&gt;profile -->
<g id="edge1" class="edge">
<title>data/winequality.csv-&gt;profile</title>
<path fill="none" stroke="#000000" d="M414.7362,-143.8314C422.6106,-135.3694 432.1213,-125.1489 440.7306,-115.8971"/>
<polygon fill="#000000" stroke="#000000" points="443.4446,-118.1183 447.6947,-108.4133 438.3201,-113.3497 443.4446,-118.1183"/>
</g>
<!-- profiling/report.html -->
<g id="node2" class="node">
<title>profiling/report.html</title>
<path fill="#ffffd1" stroke="#000000" d="M549.812,-36C549.812,-36 441.8466,-36 441.8466,-36 435.8466,-36 429.8466,-30 429.8466,-24 429.8466,-24 429.8466,-12 429.8466,-12 429.8466,-6 435.8466,0 441.8466,0 441.8466,0 549.812,0 549.812,0 555.812,0 561.812,-6 561.812,-12 561.812,-12 561.812,-24 561.812,-24 561.812,-30 555.812,-36 549.812,-36"/>
<text text-anchor="middle" x="495.8293" y="-13.8" font-family="Times,serif" font-size="14.00" fill="#000000">profiling/report.html</text>
</g>
<!-- results/summary_stats_and_regression_result.md -->
<g id="node3" class="node">
<title>results/summary_stats_and_regression_result.md</title>
<path fill="#ffffd1" stroke="#000000" d="M279.4881,-36C279.4881,-36 12.1705,-36 12.1705,-36 6.1705,-36 .1705,-30 .1705,-24 .1705,-24 .1705,-12 .1705,-12 .1705,-6 6.1705,0 12.1705,0 12.1705,0 279.4881,0 279.4881,0 285.4881,0 291.4881,-6 291.4881,-12 291.4881,-12 291.4881,-24 291.4881,-24 291.4881,-30 285.4881,-36 279.4881,-36"/>
<text text-anchor="middle" x="145.8293" y="-13.8" font-family="Times,serif" font-size="14.00" fill="#000000">results/summary_stats_and_regression_result.md</text>
</g>
<!-- results/plot.png -->
<g id="node4" class="node">
<title>results/plot.png</title>
<path fill="#ffffd1" stroke="#000000" d="M400.0471,-36C400.0471,-36 321.6115,-36 321.6115,-36 315.6115,-36 309.6115,-30 309.6115,-24 309.6115,-24 309.6115,-12 309.6115,-12 309.6115,-6 315.6115,0 321.6115,0 321.6115,0 400.0471,0 400.0471,0 406.0471,0 412.0471,-6 412.0471,-12 412.0471,-12 412.0471,-24 412.0471,-24 412.0471,-30 406.0471,-36 400.0471,-36"/>
<text text-anchor="middle" x="360.8293" y="-13.8" font-family="Times,serif" font-size="14.00" fill="#000000">results/plot.png</text>
</g>
<!-- prepare -->
<g id="node5" class="node">
<title>prepare</title>
<polygon fill="#d6fdd0" stroke="#000000" points="426.7943,-252 372.8643,-252 368.8643,-248 368.8643,-216 422.7943,-216 426.7943,-220 426.7943,-252"/>
<polyline fill="none" stroke="#000000" points="422.7943,-248 368.8643,-248 "/>
<polyline fill="none" stroke="#000000" points="422.7943,-248 422.7943,-216 "/>
<polyline fill="none" stroke="#000000" points="422.7943,-248 426.7943,-252 "/>
<text text-anchor="middle" x="397.8293" y="-229.8" font-family="Times,serif" font-size="14.00" fill="#000000">prepare</text>
</g>
<!-- prepare&#45;&gt;data/winequality.csv -->
<g id="edge3" class="edge">
<title>prepare-&gt;data/winequality.csv</title>
<path fill="none" stroke="#000000" d="M397.8293,-215.8314C397.8293,-208.131 397.8293,-198.9743 397.8293,-190.4166"/>
<polygon fill="#000000" stroke="#000000" points="401.3294,-190.4132 397.8293,-180.4133 394.3294,-190.4133 401.3294,-190.4132"/>
</g>
<!-- analyze&#45;&gt;results/summary_stats_and_regression_result.md -->
<g id="edge5" class="edge">
<title>analyze-&gt;results/summary_stats_and_regression_result.md</title>
<path fill="none" stroke="#000000" d="M331.3853,-80.1397C300.083,-69.657 249.6233,-52.7589 209.2204,-39.2287"/>
<polygon fill="#000000" stroke="#000000" points="210.3061,-35.9012 199.7122,-36.0445 208.0832,-42.5389 210.3061,-35.9012"/>
</g>
<!-- analyze&#45;&gt;results/plot.png -->
<g id="edge6" class="edge">
<title>analyze-&gt;results/plot.png</title>
<path fill="none" stroke="#000000" d="M360.8293,-71.8314C360.8293,-64.131 360.8293,-54.9743 360.8293,-46.4166"/>
<polygon fill="#000000" stroke="#000000" points="364.3294,-46.4132 360.8293,-36.4133 357.3294,-46.4133 364.3294,-46.4132"/>
</g>
<!-- profile&#45;&gt;profiling/report.html -->
<g id="edge4" class="edge">
<title>profile-&gt;profiling/report.html</title>
<path fill="none" stroke="#000000" d="M472.6519,-71.8314C476.0402,-63.9617 480.0834,-54.5712 483.8369,-45.8533"/>
<polygon fill="#000000" stroke="#000000" points="487.1614,-46.9822 487.9014,-36.4133 480.732,-44.214 487.1614,-46.9822"/>
</g>
</g>
</svg>